<?xml version="1.0" encoding="UTF-8" standalone="no"?>
<!-- Created with Inkscape (http://www.inkscape.org/) -->

<svg
   width="182.09225mm"
   height="25.665009mm"
   viewBox="0 0 182.09225 25.665009"
   version="1.1"
   id="svg5"
   xmlns:inkscape="http://www.inkscape.org/namespaces/inkscape"
   xmlns:sodipodi="http://sodipodi.sourceforge.net/DTD/sodipodi-0.dtd"
   xmlns="http://www.w3.org/2000/svg"
   xmlns:svg="http://www.w3.org/2000/svg">
  <sodipodi:namedview
     id="namedview7"
     pagecolor="#ffffff"
     bordercolor="#000000"
     borderopacity="0.25"
     inkscape:showpageshadow="2"
     inkscape:pageopacity="0.0"
     inkscape:pagecheckerboard="0"
     inkscape:deskcolor="#d1d1d1"
     inkscape:document-units="mm"
     showgrid="false" />
  <defs
     id="defs2">
    <rect
       x="167.93578"
       y="242.49022"
       width="741.77911"
       height="214.62643"
       id="rect292-5" />
  </defs>
  <g
     inkscape:label="Layer 1"
     inkscape:groupmode="layer"
     id="layer1"
     transform="translate(-11.027206,-124.05304)">
    <g
       aria-label="Dein persönliches Maiherz"
       transform="matrix(0.26458333,0,0,0.26458333,-34.509325,45.24825)"
       id="text290-2"
       style="font-size:96px;font-family:Tangerine;-inkscape-font-specification:Tangerine;text-align:center;white-space:pre;shape-inside:url(#rect292-5);fill:#c70028;stroke:#790101;stroke-width:1.00157">
      <path
         d="m 226.07936,313.89767 q 4.704,2.592 8.64,6.24 4.032,3.552 6.912,7.872 2.88,4.32 4.416,9.024 1.632,4.704 1.632,9.408 0,5.28 -2.016,9.792 -2.016,4.512 -5.664,7.776 -3.648,3.264 -8.832,5.088 -5.088,1.824 -11.328,1.824 -3.648,0 -6.816,-0.384 -3.168,-0.48 -6.048,-1.152 -2.784,-0.768 -5.472,-1.632 -2.592,-0.96 -5.184,-1.824 -3.648,2.592 -8.16,3.84 -4.416,1.152 -9.888,1.152 -3.072,0 -4.416,-0.672 -1.248,-0.768 -1.248,-2.016 0,-1.248 0.864,-2.688 0.96,-1.536 2.592,-2.784 1.728,-1.248 3.936,-2.016 2.304,-0.864 5.088,-0.864 3.744,0 6.816,0.672 3.168,0.672 6.24,1.728 3.36,-3.84 6.336,-10.368 2.976,-6.528 6.24,-16.704 1.92,-5.952 4.128,-10.56 2.304,-4.608 5.28,-7.968 -3.84,-1.92 -8.16,-2.88 -4.224,-1.056 -8.832,-1.056 -4.224,0 -7.392,1.248 -3.072,1.248 -5.184,3.36 -2.112,2.112 -3.36,4.896 -1.248,2.784 -1.728,5.856 -0.192,0.192 -0.48,0.096 -0.288,-0.096 -0.288,-0.48 0.384,-3.936 2.112,-7.296 1.728,-3.456 4.608,-5.952 2.976,-2.496 7.008,-3.936 4.032,-1.44 9.12,-1.44 4.416,0 8.544,1.056 4.128,0.96 7.968,2.784 2.496,-2.016 5.376,-3.36 2.976,-1.344 6.624,-2.112 0.288,0 0.288,0.384 0,0.288 -0.288,0.48 -5.664,1.536 -9.984,5.568 z m -44.544,55.296 q 4.032,0 7.2,-0.768 3.264,-0.864 6.048,-2.976 -3.168,-0.96 -6.528,-1.632 -3.36,-0.672 -7.392,-0.672 -2.208,0 -3.264,0.768 -0.96,0.768 -0.96,2.112 0,1.44 1.152,2.304 1.248,0.864 3.744,0.864 z m 43.008,-1.44 q 9.216,0 13.536,-4.8 4.32,-4.896 4.32,-13.536 0,-4.512 -1.44,-9.024 -1.44,-4.512 -4.032,-8.64 -2.592,-4.128 -6.24,-7.68 -3.648,-3.552 -8.16,-6.144 -4.32,5.856 -7.392,15.264 -3.36,10.656 -7.008,17.952 -3.552,7.2 -8.16,11.808 2.4,0.864 4.896,1.728 2.592,0.768 5.568,1.536 2.976,0.672 6.432,1.152 3.456,0.384 7.68,0.384 z"
         style="font-weight:bold;-inkscape-font-specification:'Tangerine Bold'"
         id="path4146" />
      <path
         d="m 270.91131,351.14567 q 0,5.472 -14.496,7.488 -0.096,0.96 -0.192,1.92 0,0.96 0,2.016 0,2.496 1.152,3.84 1.152,1.344 3.648,1.344 1.824,0 3.744,-1.056 1.92,-1.056 3.072,-2.688 0.384,-0.192 0.576,0.192 0.192,0.288 0.096,0.672 -1.92,2.496 -4.896,4.32 -2.88,1.728 -6.24,1.728 -3.36,0 -4.896,-1.632 -1.44,-1.728 -1.44,-4.8 0,-2.976 1.248,-6.144 1.248,-3.264 3.168,-5.952 2.016,-2.688 4.512,-4.32 2.592,-1.728 5.184,-1.728 2.592,0 4.128,1.536 1.632,1.44 1.632,3.264 z m -8.352,-2.304 q -2.208,0 -3.84,2.112 -1.536,2.016 -2.112,6.336 4.608,-0.48 6.816,-1.728 2.208,-1.344 2.208,-3.264 0,-1.44 -0.864,-2.4 -0.864,-1.056 -2.208,-1.056 z"
         style="font-weight:bold;-inkscape-font-specification:'Tangerine Bold'"
         id="path4148" />
      <path
         style="font-weight:bold;-inkscape-font-specification:'Tangerine Bold'"
         d="m 275.90326,353.06567 c -0.192,0.128 -0.352,0.096 -0.48,-0.096 -0.128,-0.256 -0.16,-0.48 -0.096,-0.672 2.368,-1.92 5.664,-3.904 9.888,-5.952 0.512,0 0.768,0.288 0.768,0.864 -0.832,1.472 -1.664,3.072 -2.496,4.8 -0.768,1.728 -1.472,3.456 -2.112,5.184 -0.576,1.664 -1.056,3.296 -1.44,4.896 -0.384,1.536 -0.576,2.816 -0.576,3.84 0,1.28 0.448,1.92 1.344,1.92 0.704,0 1.376,-0.288 2.016,-0.864 0.704,-0.64 1.504,-1.44 2.4,-2.4 0.128,-0.128 0.288,-0.096 0.48,0.096 0.192,0.128 0.224,0.352 0.096,0.672 -1.408,1.664 -2.816,3.008 -4.224,4.032 -1.344,1.024 -2.656,1.536 -3.936,1.536 -2.24,0 -3.36,-1.056 -3.36,-3.168 0,-1.152 0.16,-2.496 0.48,-4.032 0.384,-1.6 0.864,-3.2 1.44,-4.8 0.64,-1.664 1.312,-3.264 2.016,-4.8 0.768,-1.6 1.536,-2.976 2.304,-4.128 -0.704,0.384 -1.504,0.864 -2.4,1.44 -0.832,0.576 -1.536,1.12 -2.112,1.632 z"
         id="path4313" />
      <path
         style="font-weight:bold;-inkscape-font-specification:'Tangerine Bold';stroke-width:0.96628"
         d="m 280.23506,345.03524 c 0.12712,0.16285 0.45597,0.26926 0.98652,0.3192 0.43662,0.0195 0.87783,-2e-5 1.32365,-0.0587 0.49749,-0.0821 0.90085,-0.19541 1.21031,-0.33878 0.36106,-0.16722 0.5296,-0.35613 0.50566,-0.56678 -0.31142,-0.66882 -0.91206,-1.57326 -1.80194,-2.71331 -0.93227,-1.19433 -2.09205,-2.32025 -3.47934,-3.37779 -0.1364,-0.0846 -0.42282,-0.13674 -0.85934,-0.15656 -0.38505,-0.0434 -0.58212,-0.0261 -0.59136,0.0521 0.99307,1.09227 1.68583,2.24968 2.07834,3.47227 0.13321,0.35972 0.24539,0.71257 0.33634,1.0586 0.21208,0.80705 0.30925,1.57685 0.29124,2.30944 z"
         id="path4150" />
      <path
         d="m 316.99129,364.20167 q 0.192,-0.192 0.48,0.096 0.288,0.192 0.192,0.576 -1.728,2.4 -4.032,4.224 -2.208,1.824 -4.416,1.824 -1.632,0 -2.592,-1.056 -0.864,-1.056 -0.864,-2.784 0,-3.36 1.152,-7.296 1.248,-3.936 3.264,-7.968 0.288,-0.672 0.288,-1.44 0,-0.96 -0.864,-0.96 -3.552,0 -7.872,4.896 -4.32,4.8 -7.968,15.36 -0.096,0.288 -0.672,0.576 -0.48,0.192 -1.152,0.384 -0.672,0.096 -1.344,0.192 -0.672,0.096 -1.056,0.096 -0.48,0 -0.768,-0.192 -0.192,-0.192 0,-0.672 1.632,-4.128 3.264,-9.024 1.728,-4.992 2.976,-9.984 0.288,-0.96 0.096,-1.344 -0.192,-0.48 -0.672,-0.48 -1.056,0 -2.016,0.96 -0.96,0.864 -1.728,1.92 -0.288,0.192 -0.576,-0.096 -0.192,-0.288 -0.096,-0.576 0.48,-0.672 1.248,-1.536 0.864,-0.864 1.92,-1.632 1.056,-0.864 2.208,-1.344 1.152,-0.576 2.304,-0.576 1.632,0 2.112,1.056 0.576,0.96 0.288,2.4 -0.48,2.112 -1.056,4.032 -0.48,1.824 -1.248,4.128 1.152,-2.112 2.784,-4.128 1.728,-2.112 3.744,-3.744 2.112,-1.728 4.512,-2.688 2.4,-1.056 5.088,-1.056 1.152,0 1.728,0.576 0.672,0.576 0.672,1.344 0,1.344 -0.672,2.4 -2.016,3.648 -3.456,7.584 -1.344,3.84 -1.344,6.912 0,2.496 1.632,2.496 1.056,0 2.112,-0.864 1.056,-0.864 2.4,-2.592 z"
         style="font-weight:bold;-inkscape-font-specification:'Tangerine Bold'"
         id="path4152" />
      <path
         d="m 354.81531,346.34567 c 1.408,0 2.528,0.704 3.36,2.112 0.896,1.344 1.344,2.944 1.344,4.8 0,2.624 -0.544,5.024 -1.632,7.2 -1.024,2.112 -2.4,3.968 -4.128,5.568 -1.728,1.536 -3.712,2.752 -5.952,3.648 -2.24,0.832 -4.512,1.248 -6.816,1.248 -1.088,0 -2.016,-0.128 -2.784,-0.384 -1.088,3.136 -2.08,6.496 -2.976,10.08 -0.832,3.584 -1.248,6.912 -1.248,9.984 0,1.472 0.704,2.048 2.112,1.728 0.512,-0.064 0.992,-0.192 1.44,-0.384 0.512,-0.192 0.992,-0.448 1.44,-0.768 0.256,0 0.384,0.128 0.384,0.384 0.064,0.256 0.032,0.512 -0.096,0.768 -0.384,0.192 -0.96,0.384 -1.728,0.576 -0.704,0.256 -1.472,0.48 -2.304,0.672 -0.832,0.256 -1.664,0.448 -2.496,0.576 -0.832,0.128 -1.536,0.192 -2.112,0.192 -0.512,0 -0.928,-0.128 -1.248,-0.384 -0.32,-0.256 -0.48,-0.64 -0.48,-1.152 0,-3.264 0.544,-7.072 1.632,-11.424 1.024,-4.288 2.368,-8.736 4.032,-13.344 -0.384,-0.512 -0.608,-0.928 -0.672,-1.248 -0.064,-0.256 0.416,-0.544 1.44,-0.864 0.832,-2.304 1.728,-4.608 2.688,-6.912 0.96,-2.304 1.92,-4.576 2.88,-6.816 1.216,-2.624 1.76,-4.256 1.632,-4.896 -0.064,-0.64 -0.448,-0.768 -1.152,-0.384 -0.96,0.512 -2.016,1.408 -3.168,2.688 -0.128,0.128 -0.288,0.096 -0.48,-0.096 -0.128,-0.256 -0.16,-0.448 -0.096,-0.576 0.448,-0.512 1.024,-1.056 1.728,-1.632 0.704,-0.64 1.44,-1.216 2.208,-1.728 0.832,-0.512 1.632,-0.928 2.4,-1.248 0.768,-0.384 1.44,-0.576 2.016,-0.576 0.704,0 1.152,0.32 1.344,0.96 0.256,0.576 0.224,1.216 -0.096,1.92 -0.832,2.24 -1.78138,4.05396 -1.78138,4.05396 0,0 1.66865,-0.32808 3.31738,-1.74996 0.96,-0.768 1.952,-1.376 2.976,-1.824 1.024,-0.512 2.048,-0.768 3.072,-0.768 z m -11.424,22.656 c 1.536,0 2.976,-0.288 4.32,-0.864 1.344,-0.64 2.496,-1.536 3.456,-2.688 1.024,-1.216 1.824,-2.688 2.4,-4.416 0.64,-1.792 0.96,-3.84 0.96,-6.144 0,-1.536 -0.288,-2.784 -0.864,-3.744 -0.576,-0.96 -1.408,-1.44 -2.496,-1.44 -1.472,0 -3.232,1.312 -5.28,3.936 -2.048,2.624 -3.936,6.304 -5.664,11.04 -0.192,0.512 -0.384,1.056 -0.576,1.632 -0.192,0.512 -0.384,1.056 -0.576,1.632 1.024,0.704 2.464,1.056 4.32,1.056 z"
         style="font-weight:bold;-inkscape-font-specification:'Tangerine Bold'"
         id="path4154"
         sodipodi:nodetypes="scscccsccscccccccssssccccscccccccccscccccsscccsssscccs" />
      <path
         d="m 383.23131,351.14567 q 0,5.472 -14.496,7.488 -0.096,0.96 -0.192,1.92 0,0.96 0,2.016 0,2.496 1.152,3.84 1.152,1.344 3.648,1.344 1.824,0 3.744,-1.056 1.92,-1.056 3.072,-2.688 0.384,-0.192 0.576,0.192 0.192,0.288 0.096,0.672 -1.92,2.496 -4.896,4.32 -2.88,1.728 -6.24,1.728 -3.36,0 -4.896,-1.632 -1.44,-1.728 -1.44,-4.8 0,-2.976 1.248,-6.144 1.248,-3.264 3.168,-5.952 2.016,-2.688 4.512,-4.32 2.592,-1.728 5.184,-1.728 2.592,0 4.128,1.536 1.632,1.44 1.632,3.264 z m -8.352,-2.304 q -2.208,0 -3.84,2.112 -1.536,2.016 -2.112,6.336 4.608,-0.48 6.816,-1.728 2.208,-1.344 2.208,-3.264 0,-1.44 -0.864,-2.4 -0.864,-1.056 -2.208,-1.056 z"
         style="font-weight:bold;-inkscape-font-specification:'Tangerine Bold'"
         id="path4156" />
      <path
         d="m 396.28727,349.12967 q 0,1.44 -0.288,3.264 -0.288,1.824 -0.768,3.744 1.92,-4.608 4.224,-7.2 2.304,-2.592 4.992,-2.592 1.44,0 2.208,0.672 0.768,0.672 0.768,1.728 0,0.96 -0.768,2.496 -0.672,1.536 -1.152,2.112 -0.192,0.096 -0.384,0 -0.192,-0.192 -0.192,-0.384 0,-0.672 -0.576,-1.152 -0.48,-0.48 -1.536,-0.48 -3.36,0 -6.144,4.608 -2.688,4.512 -4.992,13.056 -0.096,0.48 -0.672,0.864 -0.576,0.288 -1.344,0.576 -0.672,0.192 -1.44,0.384 -0.768,0.096 -1.344,0.096 -1.056,0 -0.576,-1.152 0.864,-2.016 1.632,-4.32 0.864,-2.4 1.536,-4.8 0.672,-2.4 1.152,-4.608 0.48,-2.304 0.768,-4.224 0.192,-1.44 0.096,-2.208 0,-0.768 -0.768,-0.768 -0.96,0 -2.016,0.864 -0.96,0.768 -1.824,2.016 -0.384,0.288 -0.768,0.096 -0.288,-0.288 -0.096,-0.672 0.576,-0.768 1.344,-1.536 0.864,-0.864 1.824,-1.536 1.056,-0.768 2.112,-1.248 1.152,-0.48 2.304,-0.48 1.536,0 2.112,0.768 0.576,0.672 0.576,2.016 z"
         style="font-weight:bold;-inkscape-font-specification:'Tangerine Bold'"
         id="path4158" />
      <path
         d="m 418.46326,346.34567 q 2.112,0 3.36,0.576 1.344,0.576 1.344,1.44 0,1.056 -0.576,2.4 -0.48,1.344 -0.96,2.208 -0.192,0.192 -0.48,0.096 -0.288,-0.192 -0.288,-0.576 0.288,-0.672 0.288,-1.92 0,-1.344 -0.768,-2.208 -0.672,-0.864 -1.92,-0.864 -1.632,0 -2.688,1.056 -0.96,0.96 -0.96,2.784 0,1.536 0.768,2.976 0.864,1.344 1.824,2.784 1.056,1.344 1.92,2.976 0.864,1.536 0.864,3.552 0,3.456 -2.784,5.376 -2.784,1.92 -7.296,1.92 -3.264,0 -5.184,-1.056 -1.824,-1.056 -1.824,-2.304 0,-0.384 0.288,-1.056 0.288,-0.672 0.768,-1.44 0.48,-0.768 1.056,-1.536 0.576,-0.768 1.248,-1.248 0.288,-0.192 0.48,0.096 0.288,0.288 0.096,0.576 -0.576,0.576 -0.864,1.248 -0.288,0.576 -0.288,1.632 0,1.728 1.152,2.88 1.152,1.056 2.976,1.056 2.496,0 3.84,-1.344 1.44,-1.44 1.44,-3.456 0,-1.824 -0.864,-3.36 -0.768,-1.632 -1.728,-3.072 -0.96,-1.536 -1.824,-3.072 -0.768,-1.536 -0.768,-3.264 0,-2.496 2.112,-4.128 2.112,-1.728 6.24,-1.728 z"
         style="font-weight:bold;-inkscape-font-specification:'Tangerine Bold'"
         id="path4160" />
      <path
         d="m 440.5432,346.34567 q 3.36,0 4.992,2.016 1.632,2.016 1.632,4.704 0,3.744 -1.536,7.008 -1.44,3.168 -3.648,5.664 -2.112,2.4 -4.608,3.84 -2.496,1.344 -4.512,1.344 -3.264,0 -4.992,-1.92 -1.632,-2.016 -1.632,-5.088 0,-2.784 1.152,-5.856 1.248,-3.072 3.168,-5.664 2.016,-2.592 4.608,-4.32 2.592,-1.728 5.376,-1.728 z m -5.28,21.6 q 2.976,0 4.992,-3.072 2.112,-3.168 2.112,-8.64 0,-2.88 -1.152,-4.8 -1.152,-1.92 -3.36,-1.92 -3.072,0 -4.992,2.976 -1.92,2.976 -1.92,8.736 0,3.36 1.152,5.088 1.248,1.632 3.168,1.632 z m 0.192,-27.36 q -0.672,0 -1.152,-0.576 -0.48,-0.672 -0.48,-1.536 0,-0.576 0.288,-1.248 0.384,-0.768 0.864,-1.44 0.576,-0.672 1.248,-1.152 0.768,-0.48 1.632,-0.48 0.48,0 0.864,0.576 0.48,0.576 0.48,1.152 0,0.768 -0.384,1.632 -0.288,0.768 -0.864,1.44 -0.48,0.672 -1.152,1.152 -0.672,0.48 -1.344,0.48 z m 8.736,0 q -0.672,0 -1.152,-0.576 -0.48,-0.672 -0.48,-1.536 0,-0.576 0.288,-1.248 0.384,-0.768 0.96,-1.44 0.576,-0.672 1.248,-1.152 0.768,-0.48 1.632,-0.48 0.48,0 0.864,0.576 0.48,0.576 0.48,1.152 0,0.768 -0.384,1.632 -0.288,0.768 -0.864,1.44 -0.576,0.672 -1.248,1.152 -0.672,0.48 -1.344,0.48 z"
         style="font-weight:bold;-inkscape-font-specification:'Tangerine Bold'"
         id="path4162" />
      <path
         d="m 478.27114,364.20167 q 0.192,-0.192 0.48,0.096 0.288,0.192 0.192,0.576 -1.728,2.4 -4.032,4.224 -2.208,1.824 -4.416,1.824 -1.632,0 -2.592,-1.056 -0.864,-1.056 -0.864,-2.784 0,-3.36 1.152,-7.296 1.248,-3.936 3.264,-7.968 0.288,-0.672 0.288,-1.44 0,-0.96 -0.864,-0.96 -3.552,0 -7.872,4.896 -4.32,4.8 -7.968,15.36 -0.096,0.288 -0.672,0.576 -0.48,0.192 -1.152,0.384 -0.672,0.096 -1.344,0.192 -0.672,0.096 -1.056,0.096 -0.48,0 -0.768,-0.192 -0.192,-0.192 0,-0.672 1.632,-4.128 3.264,-9.024 1.728,-4.992 2.976,-9.984 0.288,-0.96 0.096,-1.344 -0.192,-0.48 -0.672,-0.48 -1.056,0 -2.016,0.96 -0.96,0.864 -1.728,1.92 -0.288,0.192 -0.576,-0.096 -0.192,-0.288 -0.096,-0.576 0.48,-0.672 1.248,-1.536 0.864,-0.864 1.92,-1.632 1.056,-0.864 2.208,-1.344 1.152,-0.576 2.304,-0.576 1.632,0 2.112,1.056 0.576,0.96 0.288,2.4 -0.48,2.112 -1.056,4.032 -0.48,1.824 -1.248,4.128 1.152,-2.112 2.784,-4.128 1.728,-2.112 3.744,-3.744 2.112,-1.728 4.512,-2.688 2.4,-1.056 5.088,-1.056 1.152,0 1.728,0.576 0.672,0.576 0.672,1.344 0,1.344 -0.672,2.4 -2.016,3.648 -3.456,7.584 -1.344,3.84 -1.344,6.912 0,2.496 1.632,2.496 1.056,0 2.112,-0.864 1.056,-0.864 2.4,-2.592 z"
         style="font-weight:bold;-inkscape-font-specification:'Tangerine Bold'"
         id="path4164" />
      <path
         d="m 519.45091,306.82925 q 1.31536,0 2.10458,0.69009 0.87691,0.60384 1.13999,1.72524 0.35076,1.03514 0.0877,2.41532 -0.17539,1.38019 -0.9646,2.76038 -0.17539,0.17252 -0.43846,0 -0.26307,-0.17253 -0.35076,-0.43131 0.17538,-1.03514 -0.78922,-1.72523 -0.87691,-0.6901 -2.80611,-0.6901 -3.59533,0 -7.27835,2.67411 -3.59533,2.58785 -7.01527,6.90094 -3.41995,4.31308 -6.40144,9.92009 -2.98149,5.60701 -5.17377,11.55906 -2.19227,5.95206 -3.50763,11.81785 -1.22768,5.86579 -1.22768,10.69645 0,2.58785 1.49075,2.58785 1.05229,0 2.01689,-0.86262 1.05229,-0.86262 2.36766,-2.58785 0.26307,-0.17252 0.43845,0.0863 0.26307,0.17253 0.17538,0.51757 -1.75382,2.58785 -4.12147,4.31309 -2.36766,1.72523 -4.29686,1.72523 -1.66613,0 -2.36765,-0.94888 -0.61384,-0.94888 -0.61384,-2.41533 0,-4.05429 1.75382,-10.09261 1.75382,-6.12458 4.64762,-12.85299 2.98149,-6.81467 6.83989,-13.54308 3.8584,-6.72841 7.97988,-12.07663 4.20916,-5.43449 8.41833,-8.79869 4.20916,-3.36421 7.89218,-3.36421 z"
         style="font-weight:bold;-inkscape-font-specification:'Tangerine Bold';stroke-width:0.907395"
         id="path4166" />
      <path
         d="m 508.70315,342.21767 c -0.192,0.192 -0.416,0.192 -0.672,0 -0.192,-0.192 -1.15076,-0.24831 -1.27876,-0.56831 -0.128,-0.384 -0.192,-0.768 -0.192,-1.152 0,-0.448 -0.58627,-1.13153 -0.39427,-1.45153 0.704,-0.896 1.46175,-0.95099 2.80575,-2.29499 1.408,-1.408 1.11736,-0.99449 2.58936,-1.95449 0.128,-0.064 0.97027,0.29953 1.16227,0.49153 0.192,0.128 0.256,0.256 0.192,0.384 -1.344,1.216 -0.89336,1.09049 -2.10936,2.81849 -1.216,1.664 -1.20699,2.0633 -2.10299,3.7273 z m -10.272,10.848 c -0.192,0.128 -0.352,0.096 -0.48,-0.096 -0.128,-0.256 -0.16,-0.48 -0.096,-0.672 2.368,-1.92 5.664,-3.904 9.888,-5.952 0.512,0 0.768,0.288 0.768,0.864 -0.832,1.472 -1.664,3.072 -2.496,4.8 -0.768,1.728 -1.472,3.456 -2.112,5.184 -0.576,1.664 -1.056,3.296 -1.44,4.896 -0.384,1.536 -0.576,2.816 -0.576,3.84 0,1.28 0.448,1.92 1.344,1.92 0.704,0 1.376,-0.288 2.016,-0.864 0.704,-0.64 1.504,-1.44 2.4,-2.4 0.128,-0.128 0.288,-0.096 0.48,0.096 0.192,0.128 0.224,0.352 0.096,0.672 -1.408,1.664 -2.816,3.008 -4.224,4.032 -1.344,1.024 -2.656,1.536 -3.936,1.536 -2.24,0 -3.36,-1.056 -3.36,-3.168 0,-1.152 0.16,-2.496 0.48,-4.032 0.384,-1.6 0.864,-3.2 1.44,-4.8 0.64,-1.664 1.312,-3.264 2.016,-4.8 0.768,-1.6 1.536,-2.976 2.304,-4.128 -0.704,0.384 -1.504,0.864 -2.4,1.44 -0.832,0.576 -1.536,1.12 -2.112,1.632 z"
         style="font-weight:bold;-inkscape-font-specification:'Tangerine Bold'"
         id="path4168"
         sodipodi:nodetypes="cccscscccccccccccccsscccccsscccccc" />
      <path
         d="m 528.38319,354.98567 q -0.576,0.192 -0.576,-0.48 0.672,-2.016 -0.288,-3.552 -0.864,-1.536 -3.264,-1.536 -3.072,0 -4.992,3.84 -1.824,3.84 -1.824,9.984 0,4.512 3.552,4.512 1.632,0 3.552,-1.152 2.016,-1.248 3.648,-3.168 0.384,-0.192 0.672,0.096 0.288,0.288 0.096,0.672 -2.4,3.072 -5.376,4.896 -2.976,1.824 -6.336,1.824 -2.112,0 -3.552,-1.44 -1.44,-1.536 -1.44,-4.224 0,-3.36 1.344,-6.72 1.44,-3.456 3.648,-6.144 2.208,-2.688 4.8,-4.32 2.592,-1.728 5.088,-1.728 2.208,0 3.456,1.248 1.248,1.248 1.248,2.784 0,0.576 -0.384,1.248 -0.288,0.672 -0.864,1.344 -0.48,0.672 -1.152,1.248 -0.576,0.576 -1.056,0.768 z"
         style="font-weight:bold;-inkscape-font-specification:'Tangerine Bold'"
         id="path4170" />
      <path
         d="m 533.6632,370.05767 q 4.32,-16.512 9.888,-29.76 5.664,-13.248 11.904,-22.56 6.24,-9.312 12.576,-14.304 6.432,-5.088 12.192,-5.088 2.4,0 3.744,1.152 1.44,1.056 1.92,2.688 0.576,1.536 0.192,3.36 -0.384,1.824 -1.44,3.264 -0.288,0.288 -0.576,0.192 -0.288,-0.096 -0.288,-0.48 0.48,-1.92 -1.056,-3.648 -1.536,-1.728 -4.896,-1.728 -5.184,0 -9.888,2.784 -4.608,2.784 -9.024,9.312 -4.416,6.432 -8.64,17.184 -4.224,10.656 -8.64,26.592 1.44,-2.592 3.264,-4.896 1.92,-2.304 4.128,-4.032 2.208,-1.728 4.704,-2.688 2.496,-1.056 5.184,-1.056 1.152,0 1.632,0.576 0.576,0.576 0.576,1.344 0,1.248 -0.864,2.784 -2.016,3.552 -3.264,7.296 -1.248,3.744 -1.248,6.816 0,1.344 0.288,2.208 0.288,0.864 1.056,0.864 0.96,0 2.112,-0.96 1.152,-1.056 1.92,-2.304 0.288,-0.192 0.576,0.096 0.288,0.192 0.192,0.48 -1.248,2.112 -3.552,3.744 -2.208,1.632 -4.032,1.632 -1.632,0 -2.688,-0.864 -1.056,-0.96 -1.056,-3.168 0,-1.728 0.288,-3.648 0.384,-2.016 0.864,-3.936 0.576,-1.92 1.248,-3.744 0.768,-1.92 1.632,-3.456 0.48,-1.152 0.48,-1.632 0,-0.864 -0.96,-0.864 -1.824,0 -3.936,1.44 -2.112,1.344 -4.128,3.936 -2.016,2.496 -3.936,6.048 -1.824,3.552 -3.168,7.872 -0.192,0.672 -1.536,1.344 -1.344,0.672 -2.976,0.672 -0.96,0 -0.768,-0.864 z"
         style="font-weight:bold;-inkscape-font-specification:'Tangerine Bold'"
         id="path4172" />
      <path
         d="m 585.21514,351.14567 q 0,5.472 -14.496,7.488 -0.096,0.96 -0.192,1.92 0,0.96 0,2.016 0,2.496 1.152,3.84 1.152,1.344 3.648,1.344 1.824,0 3.744,-1.056 1.92,-1.056 3.072,-2.688 0.384,-0.192 0.576,0.192 0.192,0.288 0.096,0.672 -1.92,2.496 -4.896,4.32 -2.88,1.728 -6.24,1.728 -3.36,0 -4.896,-1.632 -1.44,-1.728 -1.44,-4.8 0,-2.976 1.248,-6.144 1.248,-3.264 3.168,-5.952 2.016,-2.688 4.512,-4.32 2.592,-1.728 5.184,-1.728 2.592,0 4.128,1.536 1.632,1.44 1.632,3.264 z m -8.352,-2.304 q -2.208,0 -3.84,2.112 -1.536,2.016 -2.112,6.336 4.608,-0.48 6.816,-1.728 2.208,-1.344 2.208,-3.264 0,-1.44 -0.864,-2.4 -0.864,-1.056 -2.208,-1.056 z"
         style="font-weight:bold;-inkscape-font-specification:'Tangerine Bold'"
         id="path4174" />
      <path
         d="m 600.09509,346.34567 q 2.112,0 3.36,0.576 1.344,0.576 1.344,1.44 0,1.056 -0.576,2.4 -0.48,1.344 -0.96,2.208 -0.192,0.192 -0.48,0.096 -0.288,-0.192 -0.288,-0.576 0.288,-0.672 0.288,-1.92 0,-1.344 -0.768,-2.208 -0.672,-0.864 -1.92,-0.864 -1.632,0 -2.688,1.056 -0.96,0.96 -0.96,2.784 0,1.536 0.768,2.976 0.864,1.344 1.824,2.784 1.056,1.344 1.92,2.976 0.864,1.536 0.864,3.552 0,3.456 -2.784,5.376 -2.784,1.92 -7.296,1.92 -3.264,0 -5.184,-1.056 -1.824,-1.056 -1.824,-2.304 0,-0.384 0.288,-1.056 0.288,-0.672 0.768,-1.44 0.48,-0.768 1.056,-1.536 0.576,-0.768 1.248,-1.248 0.288,-0.192 0.48,0.096 0.288,0.288 0.096,0.576 -0.576,0.576 -0.864,1.248 -0.288,0.576 -0.288,1.632 0,1.728 1.152,2.88 1.152,1.056 2.976,1.056 2.496,0 3.84,-1.344 1.44,-1.44 1.44,-3.456 0,-1.824 -0.864,-3.36 -0.768,-1.632 -1.728,-3.072 -0.96,-1.536 -1.824,-3.072 -0.768,-1.536 -0.768,-3.264 0,-2.496 2.112,-4.128 2.112,-1.728 6.24,-1.728 z"
         style="font-weight:bold;-inkscape-font-specification:'Tangerine Bold'"
         id="path4176" />
      <path
         d="m 722.481,307.92952 q 0.37261,0 0.52166,0.57454 0.14906,0.47879 -0.0745,0.86182 -3.80076,4.78784 -6.78175,10.72477 -2.90647,5.84117 -4.91866,12.06537 -2.01215,6.2242 -3.05551,12.35265 -0.96882,6.03268 -0.96882,11.1078 0,5.17087 0.96882,8.13934 0.96883,2.8727 2.68289,2.8727 1.49052,0 2.83195,-1.43635 1.41599,-1.43635 2.75742,-4.02179 0.22357,-0.19152 0.44715,0 0.2981,0.19151 0.22357,0.6703 -0.81977,1.62786 -1.86312,3.25573 -1.04335,1.53211 -2.31027,2.87271 -1.19238,1.24484 -2.45931,2.10665 -1.26692,0.76606 -2.45933,0.76606 -2.7574,0 -4.09885,-3.25574 -1.34145,-3.25573 -1.34145,-8.71388 0,-4.50057 0.81977,-9.95872 0.81977,-5.5539 2.38479,-11.29931 1.63954,-5.74542 3.8753,-11.20356 2.31027,-5.5539 5.21673,-9.95872 -4.4715,4.30906 -9.24107,10.34175 -4.7696,6.03268 -9.24108,12.92718 -4.39696,6.79874 -8.27226,14.07627 -3.80076,7.27752 -6.33461,14.17202 -0.14905,0.38303 -0.59619,0.95757 -0.44715,0.47878 -1.04335,0.95757 -0.5962,0.38303 -1.19239,0.6703 -0.59622,0.28727 -1.04336,0.28727 -0.5962,0 -0.44715,-0.6703 1.41597,-14.84232 4.02434,-26.42891 2.6829,-11.58659 6.26009,-21.35379 -5.96199,11.49083 -11.7004,20.58773 -5.66389,9.00115 -11.47682,15.22535 -5.73841,6.12845 -11.70039,9.38418 -5.96199,3.25574 -12.2966,3.25574 -7.00532,0 -10.8061,-4.50058 -3.72624,-4.50057 -3.72624,-11.87386 0,-4.8836 2.16122,-8.71387 2.16123,-3.92604 5.962,-5.74542 0.29809,-0.19151 0.37261,0.19151 0.14905,0.38303 0,0.6703 -2.31028,1.91514 -3.27909,4.40482 -0.89429,2.48968 -0.89429,6.51147 0,3.15998 0.81976,6.03269 0.81977,2.77695 2.38481,4.97936 1.56501,2.10665 3.94981,3.35149 2.3848,1.24484 5.51484,1.24484 6.48365,0 12.3711,-3.83028 5.962,-3.83028 11.55135,-10.4375 5.6639,-6.70299 11.02968,-15.70414 5.44031,-9.00115 10.80611,-19.34289 -5.21675,-2.29817 -10.95516,-3.83028 -5.66389,-1.62787 -10.95514,-1.62787 -6.03652,0 -9.31561,4.40482 -3.27909,4.30906 -4.02433,11.68234 -0.14905,0.47879 -0.44716,0.38303 -0.22357,-0.0958 -0.29809,-0.57454 0.81977,-9.47993 5.36577,-14.45929 4.54603,-4.97936 11.84946,-4.97936 2.98099,0 6.33461,0.57454 3.35362,0.47878 6.55818,1.34059 3.27908,0.86182 6.18556,1.91514 2.98099,0.95757 5.21673,1.91514 0.29809,-0.0958 0.74525,-0.28727 0.29811,0.0958 0.37263,0.47878 0.0745,0.38303 -0.0745,0.6703 -1.04336,0.76606 -1.78861,2.10666 -0.67072,1.24484 -1.49049,3.15997 -3.72625,9.67145 -5.96199,20.20471 -2.16122,10.43751 -3.57719,21.16228 3.42814,-7.94782 8.04868,-15.89565 4.69508,-8.04358 9.98633,-15.22535 5.29126,-7.18177 10.88061,-13.21445 5.66389,-6.03269 11.02969,-10.05448 z"
         style="font-weight:bold;-inkscape-font-specification:'Tangerine Bold';stroke-width:0.881345"
         id="path4178" />
      <path
         d="m 745.16704,364.87367 q 0.192,-0.192 0.48,0 0.288,0.192 0.192,0.576 -1.728,2.496 -3.84,4.032 -2.112,1.44 -4.032,1.44 -2.208,0 -2.88,-3.072 -0.576,-3.168 0.672,-7.488 -2.592,4.128 -5.664,7.104 -2.976,2.88 -6.336,3.456 -2.304,0 -3.552,-2.112 -1.248,-2.112 -1.248,-4.896 0,-3.168 1.536,-6.24 1.536,-3.168 4.032,-5.664 2.592,-2.496 5.664,-4.032 3.168,-1.632 6.336,-1.632 3.36,0 5.28,1.632 0.96,-0.672 2.4,-1.152 1.536,-0.48 2.688,-0.48 0.384,0 0.384,0.48 -2.208,2.688 -3.84,5.952 -1.536,3.168 -2.4,6.144 -0.864,2.88 -1.056,5.184 -0.192,2.304 0.384,3.168 0.48,0.576 1.632,0.384 1.152,-0.288 3.168,-2.784 z m -18.432,2.496 q 1.152,0 2.784,-1.44 1.728,-1.44 3.552,-3.84 1.824,-2.4 3.552,-5.376 1.824,-2.976 3.168,-6.048 -0.384,-1.248 -1.824,-2.016 -1.344,-0.768 -3.168,-0.768 -2.208,0 -4.128,1.152 -1.92,1.056 -3.36,3.072 -1.344,1.92 -2.208,4.704 -0.768,2.688 -0.768,5.952 0,2.112 0.672,3.36 0.768,1.248 1.728,1.248 z"
         style="font-weight:bold;-inkscape-font-specification:'Tangerine Bold'"
         id="path4180" />
      <path
         d="m 752.367,353.06567 c -0.192,0.128 -0.352,0.096 -0.48,-0.096 -0.128,-0.256 -0.16,-0.48 -0.096,-0.672 2.368,-1.92 5.664,-3.904 9.888,-5.952 0.512,0 0.768,0.288 0.768,0.864 -0.832,1.472 -1.664,3.072 -2.496,4.8 -0.768,1.728 -1.472,3.456 -2.112,5.184 -0.576,1.664 -1.056,3.296 -1.44,4.896 -0.384,1.536 -0.576,2.816 -0.576,3.84 0,1.28 0.448,1.92 1.344,1.92 0.704,0 1.376,-0.288 2.016,-0.864 0.704,-0.64 1.504,-1.44 2.4,-2.4 0.128,-0.128 0.288,-0.096 0.48,0.096 0.192,0.128 0.224,0.352 0.096,0.672 -1.408,1.664 -2.816,3.008 -4.224,4.032 -1.344,1.024 -2.656,1.536 -3.936,1.536 -2.24,0 -3.36,-1.056 -3.36,-3.168 0,-1.152 0.16,-2.496 0.48,-4.032 0.384,-1.6 0.864,-3.2 1.44,-4.8 0.64,-1.664 1.312,-3.264 2.016,-4.8 0.768,-1.6 1.536,-2.976 2.304,-4.128 -0.704,0.384 -1.504,0.864 -2.4,1.44 -0.832,0.576 -1.536,1.12 -2.112,1.632 z"
         style="font-weight:bold;-inkscape-font-specification:'Tangerine Bold'"
         id="path4182"
         sodipodi:nodetypes="ccccccccsscccccsscccccc" />
      <path
         d="m 765.58814,370.25562 q 3.87118,-13.18861 8.86069,-23.77018 5.07554,-10.58157 10.66724,-18.01934 5.5917,-7.43776 11.26943,-11.42502 5.76375,-4.06393 10.92531,-4.06393 2.15066,0 3.35502,0.92013 1.29039,0.84346 1.72053,2.14698 0.51615,1.22685 0.17205,2.68374 -0.34411,1.45689 -1.29039,2.60704 -0.25808,0.23004 -0.51616,0.15336 -0.25808,-0.0767 -0.25808,-0.38339 0.43013,-1.53355 -0.94629,-2.91376 -1.37641,-1.3802 -4.38733,-1.3802 -4.64541,0 -8.86069,2.22366 -4.12925,2.22366 -8.08646,7.43777 -3.9572,5.13742 -7.74235,13.72537 -3.78515,8.51125 -7.74235,21.2398 1.29039,-2.07031 2.92489,-3.91057 1.72052,-1.84028 3.69912,-3.22049 1.9786,-1.3802 4.21528,-2.14698 2.23668,-0.84346 4.64541,-0.84346 1.03232,0 1.46245,0.46008 0.51615,0.46007 0.51615,1.07348 0,0.99681 -0.77423,2.22366 -1.80655,2.83709 -2.92489,5.82754 -1.11834,2.99043 -1.11834,5.44414 0,1.07349 0.25808,1.76359 0.25808,0.69009 0.94629,0.69009 0.86026,0 1.89257,-0.76676 1.03232,-0.84346 1.72052,-1.84028 0.25808,-0.15336 0.51616,0.0767 0.25808,0.15336 0.17205,0.3834 -1.11834,1.68691 -3.18296,2.99043 -1.9786,1.30353 -3.6131,1.30353 -1.46245,0 -2.40873,-0.6901 -0.94629,-0.76679 -0.94629,-2.53037 0,-1.3802 0.25808,-2.91377 0.3441,-1.61024 0.77423,-3.1438 0.51616,-1.53356 1.11834,-2.99044 0.68821,-1.53355 1.46245,-2.76041 0.43013,-0.92013 0.43013,-1.30352 0,-0.6901 -0.86026,-0.6901 -1.6345,0 -3.52707,1.15016 -1.89258,1.0735 -3.69913,3.1438 -1.80655,1.99363 -3.52707,4.83071 -1.6345,2.83709 -2.83886,6.2876 -0.17205,0.53675 -1.37642,1.0735 -1.20437,0.53674 -2.66681,0.53674 -0.86026,0 -0.68821,-0.6901 z"
         style="font-weight:bold;-inkscape-font-specification:'Tangerine Bold';stroke-width:0.847345"
         id="path4184" />
      <path
         d="m 815.16698,351.14567 q 0,5.472 -14.496,7.488 -0.096,0.96 -0.192,1.92 0,0.96 0,2.016 0,2.496 1.152,3.84 1.152,1.344 3.648,1.344 1.824,0 3.744,-1.056 1.92,-1.056 3.072,-2.688 0.384,-0.192 0.576,0.192 0.192,0.288 0.096,0.672 -1.92,2.496 -4.896,4.32 -2.88,1.728 -6.24,1.728 -3.36,0 -4.896,-1.632 -1.44,-1.728 -1.44,-4.8 0,-2.976 1.248,-6.144 1.248,-3.264 3.168,-5.952 2.016,-2.688 4.512,-4.32 2.592,-1.728 5.184,-1.728 2.592,0 4.128,1.536 1.632,1.44 1.632,3.264 z m -8.352,-2.304 q -2.208,0 -3.84,2.112 -1.536,2.016 -2.112,6.336 4.608,-0.48 6.816,-1.728 2.208,-1.344 2.208,-3.264 0,-1.44 -0.864,-2.4 -0.864,-1.056 -2.208,-1.056 z"
         style="font-weight:bold;-inkscape-font-specification:'Tangerine Bold'"
         id="path4186" />
      <path
         d="m 828.22294,349.12967 q 0,1.44 -0.288,3.264 -0.288,1.824 -0.768,3.744 1.92,-4.608 4.224,-7.2 2.304,-2.592 4.992,-2.592 1.44,0 2.208,0.672 0.768,0.672 0.768,1.728 0,0.96 -0.768,2.496 -0.672,1.536 -1.152,2.112 -0.192,0.096 -0.384,0 -0.192,-0.192 -0.192,-0.384 0,-0.672 -0.576,-1.152 -0.48,-0.48 -1.536,-0.48 -3.36,0 -6.144,4.608 -2.688,4.512 -4.992,13.056 -0.096,0.48 -0.672,0.864 -0.576,0.288 -1.344,0.576 -0.672,0.192 -1.44,0.384 -0.768,0.096 -1.344,0.096 -1.056,0 -0.576,-1.152 0.864,-2.016 1.632,-4.32 0.864,-2.4 1.536,-4.8 0.672,-2.4 1.152,-4.608 0.48,-2.304 0.768,-4.224 0.192,-1.44 0.096,-2.208 0,-0.768 -0.768,-0.768 -0.96,0 -2.016,0.864 -0.96,0.768 -1.824,2.016 -0.384,0.288 -0.768,0.096 -0.288,-0.288 -0.096,-0.672 0.576,-0.768 1.344,-1.536 0.864,-0.864 1.824,-1.536 1.056,-0.768 2.112,-1.248 1.152,-0.48 2.304,-0.48 1.536,0 2.112,0.768 0.576,0.672 0.576,2.016 z"
         style="font-weight:bold;-inkscape-font-specification:'Tangerine Bold'"
         id="path4188" />
      <path
         d="m 841.56693,364.48967 q 2.208,0.768 4.512,1.344 2.4,0.48 4.704,0.48 2.4,0 3.744,-1.152 1.44,-1.152 2.208,-3.168 0.288,-0.288 0.576,-0.096 0.384,0.192 0.288,0.576 -3.168,8.448 -9.312,8.448 -2.016,0 -4.128,-0.48 -2.016,-0.48 -4.128,-1.248 -1.248,-0.384 -2.208,0 -0.96,0.288 -2.496,1.728 -0.48,0 -0.672,-0.48 -0.288,-0.48 -0.096,-0.96 2.112,-2.112 4.512,-4.416 2.4,-2.4 4.8,-4.704 2.4,-2.304 4.704,-4.512 2.304,-2.208 4.224,-4.032 -2.208,-0.48 -4.992,-0.768 -2.688,-0.384 -4.512,-0.384 -2.784,0 -3.84,3.072 -0.192,0.288 -0.576,0.096 -0.384,-0.192 -0.384,-0.48 1.248,-3.456 2.88,-5.184 1.632,-1.824 4.512,-1.824 2.208,0 4.704,0.48 2.592,0.48 3.936,0.768 1.056,0.288 1.824,0 0.864,-0.288 1.632,-0.96 0.288,-0.288 0.864,-0.288 1.152,0 0.96,0.864 -5.28,4.896 -9.792,9.12 -4.416,4.128 -8.448,8.16 z"
         style="font-weight:bold;-inkscape-font-specification:'Tangerine Bold'"
         id="path4190" />
    </g>
    <path
       style="fill:#c70028;fill-opacity:1;stroke:#790101;stroke-width:0.240697;stroke-dasharray:none;stroke-opacity:1"
       d="m 165.87192,136.37605 c 0.0407,-0.11908 0.34878,-0.4494 0.53536,-0.57403 0.0986,-0.0658 0.34427,-0.20445 0.54604,-0.30802 0.57314,-0.29422 0.80365,-0.57418 0.84289,-1.02374 0.006,-0.065 -5.7e-4,-0.19361 -0.0139,-0.28599 -0.10064,-0.69803 -0.56525,-0.77321 -1.12252,-0.1816 l -0.2123,0.22534 -0.0874,-0.12944 c -0.13946,-0.2065 -0.32037,-0.36073 -0.58651,-0.50001 -0.20364,-0.10661 -0.29583,-0.13467 -0.51786,-0.15782 -0.32114,-0.033 -0.49869,0.0188 -0.60655,0.17876 -0.0892,0.13227 -0.11254,0.37383 -0.0554,0.56613 0.056,0.18616 0.19344,0.32337 0.61216,0.6111 0.29791,0.20473 0.36676,0.26901 0.49467,0.46186 0.18523,0.27928 0.22466,0.49286 0.16869,0.91396 -0.02,0.14905 -0.0327,0.27132 -0.0287,0.27167 0.004,3.5e-4 0.0178,-0.0303 0.0307,-0.0682 z"
       id="path434-0" />
  </g>
</svg>
