<?xml version="1.0" encoding="UTF-8" standalone="no"?>
<!-- Created with Inkscape (http://www.inkscape.org/) -->

<svg
   width="25.456276mm"
   height="22.341768mm"
   viewBox="0 0 25.456276 22.341768"
   version="1.1"
   id="svg5"
   xml:space="preserve"
   xmlns="http://www.w3.org/2000/svg"
   xmlns:svg="http://www.w3.org/2000/svg"><defs
     id="defs2" /><g
     id="layer1"
     transform="translate(-71.495329,-16.822687)"><path
       style="fill:#c4121f;fill-opacity:1;stroke-width:0.212676"
       d="M 81.731327,37.272417 C 78.923861,35.155802 76.0918,32.450244 74.550398,30.41225 c -1.320693,-1.746176 -2.61011,-4.425629 -2.912689,-6.052663 -0.822479,-4.422662 2.001492,-7.76762 6.325353,-7.492298 1.793778,0.11422 3.735445,1.097418 5.176672,2.621303 l 1.115157,1.179114 1.205251,-1.244309 c 2.898801,-2.992743 6.988952,-3.459695 9.665743,-1.103491 1.446942,1.273649 1.92384,2.586782 1.80945,4.9823 -0.107377,2.2487 -0.524143,3.385359 -2.187859,5.96704 -1.837634,2.851557 -5.691499,6.582359 -9.521552,9.217503 l -0.98501,0.677707 z"
       id="path466" /></g></svg>
