<?xml version="1.0" encoding="UTF-8" standalone="no"?>
<!-- Created with Inkscape (http://www.inkscape.org/) -->

<svg
   width="25.492785mm"
   height="22.777184mm"
   viewBox="0 0 25.492785 22.777184"
   version="1.1"
   id="svg5"
   xml:space="preserve"
   xmlns="http://www.w3.org/2000/svg"
   xmlns:svg="http://www.w3.org/2000/svg"><defs
     id="defs2" /><g
     id="layer1"
     transform="translate(-4.5761541,-49.98289)"><path
       style="fill:#c4121f;fill-opacity:1;stroke-width:0.212676"
       d="M 16.428409,71.409971 C 15.316871,69.719324 13.493438,68.006012 10.628376,65.96022 7.5903565,63.790926 6.1013398,62.273374 5.2614037,60.490398 4.6732511,59.241897 4.5794502,58.810318 4.5762443,57.337981 c -0.00327,-1.501545 0.079693,-1.875301 0.6926103,-3.120314 1.6921591,-3.437264 5.3583904,-5.11751 8.2255364,-3.769792 1.071741,0.503778 2.556772,2.000971 3.30155,3.328592 l 0.505004,0.900208 0.610956,-1.069745 c 1.910263,-3.344744 4.95137,-4.470873 7.982802,-2.956049 2.865879,1.432097 4.588153,4.710076 4.088309,7.781223 -0.426,2.617459 -1.963202,4.6141 -5.503156,7.147943 -3.937783,2.818603 -5.092632,3.910013 -6.517265,6.159253 l -0.646542,1.020774 z"
       id="path450" /></g></svg>
