<?xml version="1.0" encoding="UTF-8" standalone="no"?>
<!-- Created with Inkscape (http://www.inkscape.org/) -->

<svg
   width="21.914536mm"
   height="25.568989mm"
   viewBox="0 0 21.914536 25.568989"
   version="1.1"
   id="svg5"
   xml:space="preserve"
   xmlns="http://www.w3.org/2000/svg"
   xmlns:svg="http://www.w3.org/2000/svg"><defs
     id="defs2" /><g
     id="layer1"
     transform="translate(-73.25789,-115.68325)"><path
       style="fill:#c4121f;fill-opacity:1;stroke-width:0.212676"
       d="m 82.657538,139.84146 c -5.162803,-4.5567 -8.645714,-10.47899 -9.292863,-15.80145 -0.893976,-7.35251 4.017925,-11.1923 7.536416,-5.89147 1.309962,1.97354 2.516521,5.56902 3.218049,9.58961 0.138571,0.79418 0.180428,0.6935 0.629944,-1.51527 1.086059,-5.3365 2.962797,-9.12837 5.052928,-10.20922 1.207189,-0.62426 2.900209,-0.31283 3.819081,0.70251 0.198961,0.21985 0.629404,0.97135 0.95654,1.67001 0.551802,1.17847 0.594792,1.46243 0.594792,3.92873 0,2.90368 -0.256025,4.17343 -1.391459,6.90086 -1.570307,3.77204 -4.908526,8.15454 -8.532962,11.20228 l -0.992035,0.83419 z"
       id="path424" /></g></svg>
