<?xml version="1.0" encoding="UTF-8" standalone="no"?>
<!-- Created with Inkscape (http://www.inkscape.org/) -->

<svg
   width="25.480824mm"
   height="22.038734mm"
   viewBox="0 0 25.480824 22.038734"
   version="1.1"
   id="svg5"
   xml:space="preserve"
   xmlns="http://www.w3.org/2000/svg"
   xmlns:svg="http://www.w3.org/2000/svg"><defs
     id="defs2" /><g
     id="layer1"
     transform="translate(-38.073604,-83.845676)"><path
       style="fill:#c4121f;fill-opacity:1;stroke-width:0.212676"
       d="m 45.251532,104.8792 c 0.114366,-1.19023 -0.355571,-2.95501 -1.268416,-4.76335 -0.819769,-1.623953 -1.374247,-2.480177 -3.409214,-5.264512 -2.102883,-2.877257 -2.494285,-3.736246 -2.500262,-5.487198 -0.01363,-3.992722 3.879341,-6.560806 7.743078,-5.107896 1.263145,0.47499 3.073229,2.015596 4.103571,3.492649 l 0.440741,0.631826 0.99453,-0.916724 c 0.546991,-0.504199 1.537663,-1.171338 2.201494,-1.482529 1.041459,-0.488217 1.484022,-0.565805 3.227387,-0.565805 1.780627,0 2.163832,0.07043 3.228759,0.593384 2.027847,0.995821 3.213653,2.72992 3.493194,5.108373 0.42096,3.581716 -1.85241,5.86957 -9.699414,9.761212 -4.809142,2.38504 -6.318158,3.22429 -7.716155,4.29141 l -0.935882,0.71437 z"
       id="path438" /></g></svg>
