<?xml version="1.0" encoding="UTF-8" standalone="no"?>
<!-- Created with Inkscape (http://www.inkscape.org/) -->

<svg
   width="25.555067mm"
   height="20.813438mm"
   viewBox="0 0 25.555067 20.813438"
   version="1.1"
   id="svg5"
   xml:space="preserve"
   xmlns="http://www.w3.org/2000/svg"
   xmlns:svg="http://www.w3.org/2000/svg"><defs
     id="defs2" /><g
     id="layer1"
     transform="translate(-171.96825,-84.529814)"><path
       style="fill:#c4121f;fill-opacity:1;stroke-width:0.212676"
       d="m 183.79299,105.26753 c -2.20185,-0.38774 -6.41118,-3.05239 -8.25849,-5.22789 -2.05219,-2.416783 -3.09628,-4.579528 -3.46386,-7.175147 -0.49164,-3.471601 0.80833,-6.419843 3.44572,-7.814645 0.69905,-0.369697 1.25192,-0.474937 2.49329,-0.474603 1.89394,4.25e-4 3.19393,0.568642 5.1406,2.246588 0.66335,0.571779 1.40405,1.0396 1.64599,1.0396 0.24194,0 0.98115,-0.490167 1.64269,-1.08926 3.79041,-3.432622 8.50916,-2.856645 10.35856,1.264383 2.41841,5.388937 -1.4091,12.712534 -8.47306,16.212454 -1.94388,0.96311 -3.2188,1.24967 -4.53144,1.01852 z"
       id="path440" /></g></svg>
