<?xml version="1.0" encoding="UTF-8" standalone="no"?>
<!-- Created with Inkscape (http://www.inkscape.org/) -->

<svg
   width="17.643946mm"
   height="25.596642mm"
   viewBox="0 0 17.643946 25.596642"
   version="1.1"
   id="svg5"
   xml:space="preserve"
   xmlns="http://www.w3.org/2000/svg"
   xmlns:svg="http://www.w3.org/2000/svg"><defs
     id="defs2" /><g
     id="layer1"
     transform="translate(-8.4918987,-182.63914)"><path
       style="fill:#c4121f;fill-opacity:1;stroke-width:0.212676"
       d="M 18.941271,207.58784 C 11.966763,204.28837 7.3418108,195.97971 8.7420571,189.2651 c 0.5138383,-2.46402 2.0294129,-4.83841 3.7212049,-5.82987 3.029947,-1.77566 5.387853,-0.5203 5.937104,3.16095 0.0829,0.55562 0.17726,1.01021 0.20969,1.01021 0.03243,0 0.476159,-0.18931 0.986062,-0.42068 1.871657,-0.84929 4.40449,-0.45511 5.644968,0.8785 1.456855,1.56624 1.174683,3.34715 -1.141382,7.20377 -2.329247,3.87857 -3.307752,6.33708 -3.702331,9.30216 -0.133054,0.99984 -0.184927,2.23367 -0.115274,2.74185 0.06965,0.50817 0.104547,0.92388 0.07754,0.92379 -0.027,-1e-4 -0.665271,-0.29167 -1.418369,-0.64794 z"
       id="path302" /></g></svg>
