<?xml version="1.0" encoding="UTF-8" standalone="no"?>
<!-- Created with Inkscape (http://www.inkscape.org/) -->

<svg
   width="25.382771mm"
   height="20.726988mm"
   viewBox="0 0 25.382771 20.726988"
   version="1.1"
   id="svg5"
   xml:space="preserve"
   xmlns="http://www.w3.org/2000/svg"
   xmlns:svg="http://www.w3.org/2000/svg"><defs
     id="defs2" /><g
     id="layer1"
     transform="translate(-138.48394,-84.568118)"><path
       style="fill:#c4121f;fill-opacity:1;stroke-width:0.212676"
       d="m 148.55405,103.46318 c -1.16971,-1.00438 -2.97426,-2.55698 -4.01009,-3.45022 -4.9805,-4.294866 -6.78342,-7.750199 -5.80322,-11.121974 0.42682,-1.46824 1.71293,-2.974014 3.19413,-3.739711 0.90303,-0.466815 1.38096,-0.565241 2.79102,-0.574793 2.14297,-0.0145 3.60895,0.614689 5.38977,2.313307 l 1.22931,1.172567 1.15666,-1.173067 c 1.68586,-1.709796 3.06373,-2.32514 5.19748,-2.321152 2.02183,0.0038 3.24235,0.474384 4.50497,1.737004 1.33124,1.331234 1.66263,2.2146 1.66263,4.431888 0,1.733348 -0.0661,2.05157 -0.68437,3.296475 -0.94475,1.902164 -3.09903,4.174796 -7.59518,8.012466 -2.79989,2.38983 -3.95861,3.25335 -4.35986,3.24912 -0.37452,-0.004 -1.21574,-0.58042 -2.67325,-1.83191 z"
       id="path442" /></g></svg>
